<svg width="167" height="194" viewBox="0 0 167 194" fill="none" xmlns="http://www.w3.org/2000/svg">
<circle cx="82.3282" cy="114.328" r="79.3282" fill="#E94E1B" fill-opacity="0.02"/>
<g filter="url(#filter0_d)">
<ellipse cx="73.6807" cy="84.7618" rx="7.15743" ry="7.45565" fill="#E94E1B"/>
</g>
<g filter="url(#filter1_d)">
<ellipse cx="91.2761" cy="85.3582" rx="6.26275" ry="6.8592" fill="#E94E1B"/>
</g>
<g filter="url(#filter2_d)">
<ellipse cx="86.2063" cy="27.2039" rx="11.3326" ry="10.7361" fill="#E94E1B"/>
</g>
<g filter="url(#filter3_d)">
<path d="M133.579 92.127H143.434C144.891 92.127 146.073 90.9452 146.073 89.488C146.073 88.0308 144.891 86.8491 143.434 86.8491H133.579C132.122 86.8491 130.94 88.0308 130.94 89.488C130.94 90.9452 132.122 92.127 133.579 92.127Z" fill="#E94E1B"/>
</g>
<g filter="url(#filter4_d)">
<path d="M117.995 127.738L124.963 134.706C125.993 135.736 127.664 135.737 128.695 134.706C129.726 133.676 129.726 132.005 128.695 130.974L121.727 124.006C121.211 123.491 120.536 123.233 119.861 123.233C119.185 123.233 118.51 123.491 117.995 124.006C116.964 125.036 116.964 126.707 117.995 127.738Z" fill="#E94E1B"/>
</g>
<g filter="url(#filter5_d)">
<path d="M84.67 155.663C86.1272 155.663 87.3089 154.481 87.3089 153.024V143.169C87.3089 141.712 86.1274 140.53 84.67 140.53C83.2127 140.53 82.031 141.712 82.031 143.169V153.024C82.031 154.481 83.2127 155.663 84.67 155.663Z" fill="#E94E1B"/>
</g>
<g filter="url(#filter6_d)">
<path d="M39.5977 138.547C40.652 139.601 42.3606 139.601 43.4148 138.547L50.5418 131.42C51.5958 130.366 51.5958 128.656 50.5418 127.602C50.0147 127.075 49.324 126.812 48.6333 126.812C47.9426 126.812 47.2519 127.075 46.7247 127.602L39.5977 134.73C38.5437 135.784 38.5437 137.493 39.5977 138.547Z" fill="#E94E1B"/>
</g>
<g filter="url(#filter7_d)">
<path d="M22.3858 96.989H31.2954C32.6128 96.989 33.6812 95.9206 33.6812 94.6032C33.6812 93.2858 32.6128 92.2174 31.2954 92.2174H22.3858C21.0684 92.2174 20 93.2858 20 94.6032C20 95.9206 21.0681 96.989 22.3858 96.989Z" fill="#E94E1B"/>
</g>
<g filter="url(#filter8_d)">
<path d="M56.0007 118.656C63.1248 125.73 72.5591 129.616 82.5922 129.616C82.6835 129.616 82.7754 129.615 82.8669 129.615C93.7193 129.538 104.039 124.747 111.18 116.47C112.132 115.367 112.009 113.7 110.905 112.748C109.801 111.796 108.135 111.92 107.183 113.023C101.036 120.147 92.1598 124.271 82.8297 124.337C82.7503 124.338 82.6722 124.338 82.5933 124.338C73.9631 124.338 65.8473 120.995 59.7192 114.911C53.5342 108.77 50.1279 100.588 50.1279 91.8728C50.1279 83.5499 53.2743 75.6352 58.9872 69.5873C64.9853 63.2375 68.5059 55.2003 69.0343 46.7521L74.1798 46.7521V74.7242H72.5084C68.6761 74.7242 65.5588 77.8416 65.5588 81.6731V82.0251C65.5588 85.8571 68.6764 88.974 72.5084 88.974C76.3407 88.974 79.4577 85.8566 79.4577 82.0251V80.0019H85.7914V82.0251C85.7914 85.8571 88.9089 88.974 92.7407 88.974H93.1877C97.02 88.974 100.137 85.8566 100.137 82.0251V81.6731C100.137 77.8411 97.0195 74.7242 93.1877 74.7242H91.0693V46.7523H96.152C96.664 55.2945 100.115 63.2573 105.998 69.373C112.074 75.6896 115.288 84.0025 115.05 92.7801C115.01 94.2371 116.159 95.4502 117.616 95.4898C119.08 95.5394 120.286 94.3806 120.326 92.9234C120.603 82.721 116.866 73.0583 109.802 65.7144C104.361 60.0576 101.364 52.5321 101.364 44.5237V44.1134L101.364 36.8875C101.364 31.243 97.0831 26.5816 91.5977 25.9741V25.3775C91.5979 20.43 87.5728 16.4051 82.6252 16.4051C77.6777 16.4051 73.6525 20.43 73.6525 25.3772V25.9662C68.138 26.5462 63.8265 31.2222 63.8265 36.8872V44.1131V44.5227C63.8265 52.426 60.7453 60.0407 55.1509 65.9632C48.5085 72.9947 44.8505 82.1967 44.8505 91.8731C44.8502 102.005 48.8102 111.517 56.0007 118.656ZM74.1798 82.0251C74.1798 82.9467 73.43 83.6964 72.5084 83.6964C71.5868 83.6964 70.8368 82.9467 70.8368 82.0251V81.6731C70.8368 80.7516 71.5868 80.0019 72.5084 80.0019H74.1798V82.0251ZM85.7916 74.7242H79.458V46.7523H85.7916V74.7242ZM93.1883 80.0019C94.1099 80.0019 94.8596 80.7516 94.8596 81.6731V82.0251C94.8596 82.9467 94.1099 83.6964 93.1883 83.6964H92.7412C91.8196 83.6964 91.0698 82.9467 91.0698 82.0251V80.0019H93.1883ZM78.9302 25.3772C78.9302 23.3399 80.5875 21.6827 82.6249 21.6827C84.6623 21.6827 86.3197 23.3399 86.3197 25.3772V25.905H78.9302V25.3772ZM69.1042 36.8872C69.1042 33.7416 71.6634 31.1826 74.8092 31.1826H76.2911H88.9586H90.381C93.5269 31.1826 96.086 33.7416 96.086 36.8872L96.086 41.4744L69.1042 41.4744V36.8872Z" fill="#242424"/>
</g>
<g filter="url(#filter9_d)">
<path d="M82.6275 151.519C84.0848 151.519 85.2665 150.337 85.2665 148.88V139.025C85.2665 137.568 84.085 136.386 82.6275 136.386C81.1703 136.386 79.9886 137.568 79.9886 139.025V148.88C79.9886 150.337 81.1703 151.519 82.6275 151.519Z" fill="#242424"/>
</g>
<g filter="url(#filter10_d)">
<path d="M25.6212 94.512H35.4761C36.9333 94.512 38.115 93.3302 38.115 91.873C38.115 90.4158 36.9333 89.2341 35.4761 89.2341H25.6212C24.164 89.2341 22.9823 90.4158 22.9823 91.873C22.9823 93.3302 24.1637 94.512 25.6212 94.512Z" fill="#242424"/>
</g>
<g filter="url(#filter11_d)">
<path d="M129.779 94.512H139.634C141.091 94.512 142.273 93.3302 142.273 91.873C142.273 90.4158 141.091 89.2341 139.634 89.2341H129.779C128.322 89.2341 127.14 90.4158 127.14 91.873C127.14 93.3302 128.321 94.512 129.779 94.512Z" fill="#242424"/>
</g>
<g filter="url(#filter12_d)">
<path d="M114.103 127.08L121.071 134.049C122.101 135.079 123.772 135.079 124.803 134.049C125.834 133.018 125.834 131.347 124.803 130.316L117.835 123.348C117.319 122.833 116.644 122.575 115.969 122.575C115.294 122.575 114.618 122.833 114.103 123.348C113.072 124.378 113.072 126.049 114.103 127.08Z" fill="#242424"/>
</g>
<g filter="url(#filter13_d)">
<path d="M40.4518 134.049C41.4825 135.079 43.153 135.079 44.1838 134.049L51.1519 127.081C52.1824 126.05 52.1824 124.379 51.1519 123.348C50.6365 122.833 49.9612 122.576 49.2859 122.576C48.6106 122.576 47.9353 122.833 47.4199 123.348L40.4518 130.317C39.4213 131.347 39.4213 133.018 40.4518 134.049Z" fill="#242424"/>
</g>
<g filter="url(#filter14_d)">
<path d="M113.088 107.334C113.579 107.825 114.26 108.105 114.954 108.105C115.648 108.105 116.329 107.826 116.819 107.334C117.31 106.841 117.593 106.163 117.593 105.466C117.593 104.772 117.311 104.094 116.819 103.6C116.329 103.11 115.648 102.827 114.954 102.827C114.26 102.827 113.579 103.109 113.088 103.6C112.597 104.094 112.315 104.772 112.315 105.466C112.315 106.163 112.597 106.841 113.088 107.334Z" fill="#242424"/>
</g>
<defs>
<filter id="filter0_d" x="46.5233" y="61.3062" width="54.3149" height="54.9113" filterUnits="userSpaceOnUse" color-interpolation-filters="sRGB">
<feFlood flood-opacity="0" result="BackgroundImageFix"/>
<feColorMatrix in="SourceAlpha" type="matrix" values="0 0 0 0 0 0 0 0 0 0 0 0 0 0 0 0 0 0 127 0"/>
<feOffset dy="4"/>
<feGaussianBlur stdDeviation="10"/>
<feColorMatrix type="matrix" values="0 0 0 0 0 0 0 0 0 0 0 0 0 0 0 0 0 0 0.25 0"/>
<feBlend mode="normal" in2="BackgroundImageFix" result="effect1_dropShadow"/>
<feBlend mode="normal" in="SourceGraphic" in2="effect1_dropShadow" result="shape"/>
</filter>
<filter id="filter1_d" x="65.0134" y="62.499" width="52.5255" height="53.7184" filterUnits="userSpaceOnUse" color-interpolation-filters="sRGB">
<feFlood flood-opacity="0" result="BackgroundImageFix"/>
<feColorMatrix in="SourceAlpha" type="matrix" values="0 0 0 0 0 0 0 0 0 0 0 0 0 0 0 0 0 0 127 0"/>
<feOffset dy="4"/>
<feGaussianBlur stdDeviation="10"/>
<feColorMatrix type="matrix" values="0 0 0 0 0 0 0 0 0 0 0 0 0 0 0 0 0 0 0.25 0"/>
<feBlend mode="normal" in2="BackgroundImageFix" result="effect1_dropShadow"/>
<feBlend mode="normal" in="SourceGraphic" in2="effect1_dropShadow" result="shape"/>
</filter>
<filter id="filter2_d" x="54.8737" y="0.467773" width="62.6652" height="61.4723" filterUnits="userSpaceOnUse" color-interpolation-filters="sRGB">
<feFlood flood-opacity="0" result="BackgroundImageFix"/>
<feColorMatrix in="SourceAlpha" type="matrix" values="0 0 0 0 0 0 0 0 0 0 0 0 0 0 0 0 0 0 127 0"/>
<feOffset dy="4"/>
<feGaussianBlur stdDeviation="10"/>
<feColorMatrix type="matrix" values="0 0 0 0 0 0 0 0 0 0 0 0 0 0 0 0 0 0 0.25 0"/>
<feBlend mode="normal" in2="BackgroundImageFix" result="effect1_dropShadow"/>
<feBlend mode="normal" in="SourceGraphic" in2="effect1_dropShadow" result="shape"/>
</filter>
<filter id="filter3_d" x="110.94" y="70.8491" width="55.1327" height="45.2779" filterUnits="userSpaceOnUse" color-interpolation-filters="sRGB">
<feFlood flood-opacity="0" result="BackgroundImageFix"/>
<feColorMatrix in="SourceAlpha" type="matrix" values="0 0 0 0 0 0 0 0 0 0 0 0 0 0 0 0 0 0 127 0"/>
<feOffset dy="4"/>
<feGaussianBlur stdDeviation="10"/>
<feColorMatrix type="matrix" values="0 0 0 0 0 0 0 0 0 0 0 0 0 0 0 0 0 0 0.25 0"/>
<feBlend mode="normal" in2="BackgroundImageFix" result="effect1_dropShadow"/>
<feBlend mode="normal" in="SourceGraphic" in2="effect1_dropShadow" result="shape"/>
</filter>
<filter id="filter4_d" x="97.2218" y="107.233" width="52.2461" height="52.2462" filterUnits="userSpaceOnUse" color-interpolation-filters="sRGB">
<feFlood flood-opacity="0" result="BackgroundImageFix"/>
<feColorMatrix in="SourceAlpha" type="matrix" values="0 0 0 0 0 0 0 0 0 0 0 0 0 0 0 0 0 0 127 0"/>
<feOffset dy="4"/>
<feGaussianBlur stdDeviation="10"/>
<feColorMatrix type="matrix" values="0 0 0 0 0 0 0 0 0 0 0 0 0 0 0 0 0 0 0.25 0"/>
<feBlend mode="normal" in2="BackgroundImageFix" result="effect1_dropShadow"/>
<feBlend mode="normal" in="SourceGraphic" in2="effect1_dropShadow" result="shape"/>
</filter>
<filter id="filter5_d" x="62.031" y="124.53" width="45.2779" height="55.1327" filterUnits="userSpaceOnUse" color-interpolation-filters="sRGB">
<feFlood flood-opacity="0" result="BackgroundImageFix"/>
<feColorMatrix in="SourceAlpha" type="matrix" values="0 0 0 0 0 0 0 0 0 0 0 0 0 0 0 0 0 0 127 0"/>
<feOffset dy="4"/>
<feGaussianBlur stdDeviation="10"/>
<feColorMatrix type="matrix" values="0 0 0 0 0 0 0 0 0 0 0 0 0 0 0 0 0 0 0.25 0"/>
<feBlend mode="normal" in2="BackgroundImageFix" result="effect1_dropShadow"/>
<feBlend mode="normal" in="SourceGraphic" in2="effect1_dropShadow" result="shape"/>
</filter>
<filter id="filter6_d" x="18.8073" y="110.812" width="52.5251" height="52.5255" filterUnits="userSpaceOnUse" color-interpolation-filters="sRGB">
<feFlood flood-opacity="0" result="BackgroundImageFix"/>
<feColorMatrix in="SourceAlpha" type="matrix" values="0 0 0 0 0 0 0 0 0 0 0 0 0 0 0 0 0 0 127 0"/>
<feOffset dy="4"/>
<feGaussianBlur stdDeviation="10"/>
<feColorMatrix type="matrix" values="0 0 0 0 0 0 0 0 0 0 0 0 0 0 0 0 0 0 0.25 0"/>
<feBlend mode="normal" in2="BackgroundImageFix" result="effect1_dropShadow"/>
<feBlend mode="normal" in="SourceGraphic" in2="effect1_dropShadow" result="shape"/>
</filter>
<filter id="filter7_d" x="0" y="76.2173" width="53.6812" height="44.7716" filterUnits="userSpaceOnUse" color-interpolation-filters="sRGB">
<feFlood flood-opacity="0" result="BackgroundImageFix"/>
<feColorMatrix in="SourceAlpha" type="matrix" values="0 0 0 0 0 0 0 0 0 0 0 0 0 0 0 0 0 0 127 0"/>
<feOffset dy="4"/>
<feGaussianBlur stdDeviation="10"/>
<feColorMatrix type="matrix" values="0 0 0 0 0 0 0 0 0 0 0 0 0 0 0 0 0 0 0.25 0"/>
<feBlend mode="normal" in2="BackgroundImageFix" result="effect1_dropShadow"/>
<feBlend mode="normal" in="SourceGraphic" in2="effect1_dropShadow" result="shape"/>
</filter>
<filter id="filter8_d" x="24.8505" y="0.405029" width="115.49" height="153.211" filterUnits="userSpaceOnUse" color-interpolation-filters="sRGB">
<feFlood flood-opacity="0" result="BackgroundImageFix"/>
<feColorMatrix in="SourceAlpha" type="matrix" values="0 0 0 0 0 0 0 0 0 0 0 0 0 0 0 0 0 0 127 0"/>
<feOffset dy="4"/>
<feGaussianBlur stdDeviation="10"/>
<feColorMatrix type="matrix" values="0 0 0 0 0 0 0 0 0 0 0 0 0 0 0 0 0 0 0.25 0"/>
<feBlend mode="normal" in2="BackgroundImageFix" result="effect1_dropShadow"/>
<feBlend mode="normal" in="SourceGraphic" in2="effect1_dropShadow" result="shape"/>
</filter>
<filter id="filter9_d" x="59.9886" y="120.386" width="45.2779" height="55.1327" filterUnits="userSpaceOnUse" color-interpolation-filters="sRGB">
<feFlood flood-opacity="0" result="BackgroundImageFix"/>
<feColorMatrix in="SourceAlpha" type="matrix" values="0 0 0 0 0 0 0 0 0 0 0 0 0 0 0 0 0 0 127 0"/>
<feOffset dy="4"/>
<feGaussianBlur stdDeviation="10"/>
<feColorMatrix type="matrix" values="0 0 0 0 0 0 0 0 0 0 0 0 0 0 0 0 0 0 0.25 0"/>
<feBlend mode="normal" in2="BackgroundImageFix" result="effect1_dropShadow"/>
<feBlend mode="normal" in="SourceGraphic" in2="effect1_dropShadow" result="shape"/>
</filter>
<filter id="filter10_d" x="2.9823" y="73.2341" width="55.1327" height="45.2779" filterUnits="userSpaceOnUse" color-interpolation-filters="sRGB">
<feFlood flood-opacity="0" result="BackgroundImageFix"/>
<feColorMatrix in="SourceAlpha" type="matrix" values="0 0 0 0 0 0 0 0 0 0 0 0 0 0 0 0 0 0 127 0"/>
<feOffset dy="4"/>
<feGaussianBlur stdDeviation="10"/>
<feColorMatrix type="matrix" values="0 0 0 0 0 0 0 0 0 0 0 0 0 0 0 0 0 0 0.25 0"/>
<feBlend mode="normal" in2="BackgroundImageFix" result="effect1_dropShadow"/>
<feBlend mode="normal" in="SourceGraphic" in2="effect1_dropShadow" result="shape"/>
</filter>
<filter id="filter11_d" x="107.14" y="73.2341" width="55.1327" height="45.2779" filterUnits="userSpaceOnUse" color-interpolation-filters="sRGB">
<feFlood flood-opacity="0" result="BackgroundImageFix"/>
<feColorMatrix in="SourceAlpha" type="matrix" values="0 0 0 0 0 0 0 0 0 0 0 0 0 0 0 0 0 0 127 0"/>
<feOffset dy="4"/>
<feGaussianBlur stdDeviation="10"/>
<feColorMatrix type="matrix" values="0 0 0 0 0 0 0 0 0 0 0 0 0 0 0 0 0 0 0.25 0"/>
<feBlend mode="normal" in2="BackgroundImageFix" result="effect1_dropShadow"/>
<feBlend mode="normal" in="SourceGraphic" in2="effect1_dropShadow" result="shape"/>
</filter>
<filter id="filter12_d" x="93.33" y="106.575" width="52.2461" height="52.2462" filterUnits="userSpaceOnUse" color-interpolation-filters="sRGB">
<feFlood flood-opacity="0" result="BackgroundImageFix"/>
<feColorMatrix in="SourceAlpha" type="matrix" values="0 0 0 0 0 0 0 0 0 0 0 0 0 0 0 0 0 0 127 0"/>
<feOffset dy="4"/>
<feGaussianBlur stdDeviation="10"/>
<feColorMatrix type="matrix" values="0 0 0 0 0 0 0 0 0 0 0 0 0 0 0 0 0 0 0.25 0"/>
<feBlend mode="normal" in2="BackgroundImageFix" result="effect1_dropShadow"/>
<feBlend mode="normal" in="SourceGraphic" in2="effect1_dropShadow" result="shape"/>
</filter>
<filter id="filter13_d" x="19.6789" y="106.575" width="52.2459" height="52.2462" filterUnits="userSpaceOnUse" color-interpolation-filters="sRGB">
<feFlood flood-opacity="0" result="BackgroundImageFix"/>
<feColorMatrix in="SourceAlpha" type="matrix" values="0 0 0 0 0 0 0 0 0 0 0 0 0 0 0 0 0 0 127 0"/>
<feOffset dy="4"/>
<feGaussianBlur stdDeviation="10"/>
<feColorMatrix type="matrix" values="0 0 0 0 0 0 0 0 0 0 0 0 0 0 0 0 0 0 0.25 0"/>
<feBlend mode="normal" in2="BackgroundImageFix" result="effect1_dropShadow"/>
<feBlend mode="normal" in="SourceGraphic" in2="effect1_dropShadow" result="shape"/>
</filter>
<filter id="filter14_d" x="92.3148" y="86.8271" width="45.2779" height="45.2779" filterUnits="userSpaceOnUse" color-interpolation-filters="sRGB">
<feFlood flood-opacity="0" result="BackgroundImageFix"/>
<feColorMatrix in="SourceAlpha" type="matrix" values="0 0 0 0 0 0 0 0 0 0 0 0 0 0 0 0 0 0 127 0"/>
<feOffset dy="4"/>
<feGaussianBlur stdDeviation="10"/>
<feColorMatrix type="matrix" values="0 0 0 0 0 0 0 0 0 0 0 0 0 0 0 0 0 0 0.25 0"/>
<feBlend mode="normal" in2="BackgroundImageFix" result="effect1_dropShadow"/>
<feBlend mode="normal" in="SourceGraphic" in2="effect1_dropShadow" result="shape"/>
</filter>
</defs>
</svg>
