<svg width="160" height="194" viewBox="0 0 160 194" fill="none" xmlns="http://www.w3.org/2000/svg">
<g filter="url(#filter0_d)">
<path d="M53.1503 118.251C60.2743 125.325 69.7086 129.211 79.7418 129.211C79.8331 129.211 79.9249 129.21 80.0165 129.21C90.8688 129.133 101.189 124.342 108.329 116.065C109.281 114.961 109.158 113.295 108.055 112.343C106.951 111.391 105.284 111.514 104.333 112.618C98.186 119.742 89.3093 123.866 79.9793 123.932C79.8998 123.933 79.8217 123.933 79.7428 123.933C71.1126 123.933 62.9968 120.59 56.8688 114.506C50.6838 108.365 47.2775 100.183 47.2775 91.4678C47.2775 83.1449 50.4238 75.2302 56.1367 69.1823C62.1349 62.8325 65.6555 54.7953 66.1838 46.347L71.3293 46.347V74.3192H69.658C65.8257 74.3192 62.7084 77.4366 62.7084 81.2681V81.6201C62.7084 85.4521 65.826 88.5689 69.658 88.5689C73.4902 88.5689 76.6073 85.4516 76.6073 81.6201V79.5968H82.9409V81.6201C82.9409 85.4521 86.0585 88.5689 89.8902 88.5689H90.3373C94.1695 88.5689 97.2866 85.4516 97.2866 81.6201V81.2681C97.2866 77.4361 94.169 74.3192 90.3373 74.3192H88.2189V46.3473H93.3015C93.8135 54.8895 97.2642 62.8523 103.148 68.968C109.223 75.2845 112.438 83.5975 112.199 92.3751C112.16 93.832 113.308 95.0452 114.766 95.0847C116.229 95.1344 117.436 93.9756 117.476 92.5184C117.753 82.316 114.016 72.6533 106.952 65.3094C101.51 59.6525 98.5135 52.1271 98.5135 44.1187V43.7083L98.5135 36.4824C98.5135 30.838 94.2326 26.1766 88.7472 25.5691V24.9724C88.7475 20.025 84.7223 16.0001 79.7747 16.0001C74.8272 16.0001 70.802 20.025 70.802 24.9722V25.5612C65.2876 26.1412 60.976 30.8171 60.976 36.4821V43.7081V44.1177C60.976 52.021 57.8949 59.6357 52.3005 65.5582C45.6581 72.5897 42 81.7916 42 91.4681C41.9997 101.6 45.9597 111.112 53.1503 118.251ZM71.3293 81.6201C71.3293 82.5416 70.5795 83.2913 69.658 83.2913C68.7364 83.2913 67.9863 82.5416 67.9863 81.6201V81.2681C67.9863 80.3465 68.7364 79.5968 69.658 79.5968H71.3293V81.6201ZM82.9412 74.3192H76.6075V46.3473H82.9412V74.3192ZM90.3378 79.5968C91.2594 79.5968 92.0092 80.3465 92.0092 81.2681V81.6201C92.0092 82.5416 91.2594 83.2913 90.3378 83.2913H89.8907C88.9692 83.2913 88.2194 82.5416 88.2194 81.6201V79.5968H90.3378ZM76.0797 24.9722C76.0797 22.9349 77.7371 21.2777 79.7745 21.2777C81.8119 21.2777 83.4692 22.9349 83.4692 24.9722V25.5H76.0797V24.9722ZM66.2538 36.4821C66.2538 33.3365 68.8129 30.7776 71.9587 30.7776H73.4406H86.1081H87.5306C90.6764 30.7776 93.2356 33.3365 93.2356 36.4821L93.2356 41.0694L66.2538 41.0694V36.4821Z" fill="#242424"/>
</g>
<g filter="url(#filter1_d)">
<path d="M110.237 106.929C110.728 107.42 111.409 107.7 112.103 107.7C112.797 107.7 113.478 107.42 113.969 106.929C114.46 106.436 114.742 105.758 114.742 105.061C114.742 104.367 114.46 103.689 113.969 103.195C113.478 102.705 112.797 102.422 112.103 102.422C111.409 102.422 110.728 102.704 110.237 103.195C109.746 103.689 109.464 104.367 109.464 105.061C109.464 105.758 109.746 106.436 110.237 106.929Z" fill="#242424"/>
</g>
<defs>
<filter id="filter0_d" x="22" y="0" width="115.49" height="153.211" filterUnits="userSpaceOnUse" color-interpolation-filters="sRGB">
<feFlood flood-opacity="0" result="BackgroundImageFix"/>
<feColorMatrix in="SourceAlpha" type="matrix" values="0 0 0 0 0 0 0 0 0 0 0 0 0 0 0 0 0 0 127 0"/>
<feOffset dy="4"/>
<feGaussianBlur stdDeviation="10"/>
<feColorMatrix type="matrix" values="0 0 0 0 0 0 0 0 0 0 0 0 0 0 0 0 0 0 0.25 0"/>
<feBlend mode="normal" in2="BackgroundImageFix" result="effect1_dropShadow"/>
<feBlend mode="normal" in="SourceGraphic" in2="effect1_dropShadow" result="shape"/>
</filter>
<filter id="filter1_d" x="89.4638" y="86.4221" width="45.2782" height="45.2779" filterUnits="userSpaceOnUse" color-interpolation-filters="sRGB">
<feFlood flood-opacity="0" result="BackgroundImageFix"/>
<feColorMatrix in="SourceAlpha" type="matrix" values="0 0 0 0 0 0 0 0 0 0 0 0 0 0 0 0 0 0 127 0"/>
<feOffset dy="4"/>
<feGaussianBlur stdDeviation="10"/>
<feColorMatrix type="matrix" values="0 0 0 0 0 0 0 0 0 0 0 0 0 0 0 0 0 0 0.25 0"/>
<feBlend mode="normal" in2="BackgroundImageFix" result="effect1_dropShadow"/>
<feBlend mode="normal" in="SourceGraphic" in2="effect1_dropShadow" result="shape"/>
</filter>
</defs>
</svg>
